<svg width="20" height="20" viewBox="0 0 20 20" xmlns="http://www.w3.org/2000/svg">
<path d="M2.31337 13.3576L10 17.2054L17.6867 13.3576C17.7724 13.3148 17.8656 13.2892 17.9611 13.2824C18.0566 13.2757 18.1526 13.2877 18.2434 13.318C18.3343 13.3483 18.4183 13.3962 18.4906 13.4589C18.5629 13.5217 18.6222 13.5981 18.665 13.6837C18.7079 13.7694 18.7334 13.8626 18.7402 13.9581C18.747 14.0536 18.7349 14.1496 18.7046 14.2404C18.6743 14.3313 18.6264 14.4153 18.5637 14.4876C18.501 14.5599 18.4246 14.6192 18.3389 14.662L10.3267 18.672C10.2256 18.723 10.1139 18.7496 10.0006 18.7496C9.88732 18.7496 9.77563 18.723 9.67448 18.672L1.66337 14.6609C1.54708 14.6047 1.4478 14.5186 1.37567 14.4114C1.30353 14.3043 1.26111 14.1799 1.25275 14.051C1.24439 13.9221 1.27039 13.7933 1.32808 13.6777C1.38577 13.5621 1.4731 13.4639 1.58115 13.3931C1.68909 13.3229 1.81378 13.2825 1.94245 13.2763C2.07111 13.27 2.19912 13.2981 2.31337 13.3576ZM18.42 9.38426C18.5281 9.45496 18.6155 9.55308 18.6733 9.6686C18.7311 9.78411 18.7572 9.91289 18.7489 10.0418C18.7407 10.1707 18.6984 10.2951 18.6264 10.4023C18.5543 10.5095 18.4551 10.5957 18.3389 10.652L10.3267 14.6632C10.2256 14.7141 10.1139 14.7407 10.0006 14.7407C9.88732 14.7407 9.77563 14.7141 9.67448 14.6632L1.66337 10.652C1.30893 10.4676 1.16893 10.0343 1.3467 9.67759C1.52448 9.32093 1.95559 9.17426 2.31448 9.34759L10 13.1943L17.6867 9.34648C17.8013 9.28698 17.9296 9.25911 18.0585 9.26575C18.1874 9.27239 18.3122 9.3133 18.42 9.38426ZM10.3267 1.32648L18.3378 5.33648C18.459 5.39696 18.561 5.49003 18.6323 5.60524C18.7036 5.72044 18.7413 5.85323 18.7413 5.98871C18.7413 6.12418 18.7036 6.25697 18.6323 6.37218C18.561 6.48738 18.459 6.58045 18.3378 6.64093L10.3256 10.6509C10.2244 10.7019 10.1128 10.7285 9.99948 10.7285C9.88621 10.7285 9.77452 10.7019 9.67337 10.6509L1.66226 6.64204C1.54138 6.58127 1.43976 6.4881 1.36875 6.37293C1.29774 6.25776 1.26014 6.12512 1.26014 5.98982C1.26014 5.85452 1.29774 5.72188 1.36875 5.60671C1.43976 5.49154 1.54138 5.39837 1.66226 5.33759L9.67337 1.32759C9.77473 1.27676 9.88652 1.25019 9.99991 1.25C10.1133 1.24981 10.2252 1.27599 10.3267 1.32648ZM10 2.79426L3.6167 5.98871L10 9.18426L16.3834 5.98871L10 2.79426Z" />
</svg>
