<svg width="20" height="20" viewBox="0 0 20 20" xmlns="http://www.w3.org/2000/svg">
<path fill-rule="evenodd" clip-rule="evenodd" d="M6.62686 6.60866C7.31086 5.04175 8.84812 3.95898 10.625 3.95898C12.6655 3.95898 14.3913 5.3884 14.8691 7.33583L14.9695 7.74481L15.3862 7.80539C16.6903 7.99495 17.7083 9.14258 17.7083 10.5461C17.7083 12.086 16.4852 13.315 15 13.315H13.8021C13.4569 13.315 13.1771 13.5949 13.1771 13.94C13.1771 14.2852 13.4569 14.565 13.8021 14.565H15C17.1967 14.565 18.9583 12.755 18.9583 10.5461C18.9583 8.67459 17.6955 7.09151 15.9733 6.64994C15.2401 4.36816 13.1288 2.70898 10.625 2.70898C8.48927 2.70898 6.63825 3.91724 5.68624 5.687C5.59702 5.68148 5.50713 5.67868 5.41667 5.67868C2.98985 5.67868 1.04167 7.67863 1.04167 10.1219C1.04167 12.5651 2.98985 14.565 5.41667 14.565H6.61458C6.95976 14.565 7.23958 14.2852 7.23958 13.94C7.23958 13.5949 6.95976 13.315 6.61458 13.315H5.41667C3.70135 13.315 2.29167 11.8961 2.29167 10.1219C2.29167 8.34765 3.70135 6.92868 5.41667 6.92868C5.59779 6.92868 5.77484 6.94436 5.94672 6.97432L6.43042 7.05865L6.62686 6.60866ZM10.8312 16.3378L13.4304 13.083L13.4325 13.0801C13.6713 12.7528 13.6325 12.2698 13.2788 12.0226C12.9423 11.7873 12.465 11.8352 12.1792 12.1615L12.1767 12.1644L9.57424 15.4234L9.57211 15.4263C9.33331 15.7535 9.37218 16.2365 9.72585 16.4838L9.72804 16.4853L9.73027 16.4868C9.8713 16.5788 10.0174 16.626 10.2034 16.626C10.4332 16.626 10.6781 16.5366 10.8312 16.3378ZM7.66033 16.3378L10.2595 13.083L10.2616 13.0801C10.5004 12.7528 10.4615 12.2698 10.1079 12.0226C9.7714 11.7873 9.29405 11.8352 9.0083 12.1615L9.00581 12.1644L6.40333 15.4234L6.4012 15.4263C6.1624 15.7535 6.20127 16.2365 6.55494 16.4838L6.55713 16.4853L6.55936 16.4868C6.70038 16.5788 6.84652 16.626 7.03247 16.626C7.26229 16.626 7.5072 16.5366 7.66033 16.3378Z" />
</svg>
