<svg width="20" height="20" viewBox="0 0 20 20" xmlns="http://www.w3.org/2000/svg">
<path d="M7.64971 4.00023C8.55647 3.99964 9.44028 4.30068 10.1761 4.86058C10.912 5.42057 11.4625 6.21133 11.7493 7.12035C12.8562 7.01105 13.9605 7.35579 14.8333 8.08324C15.706 8.81068 16.2807 9.86489 16.4378 11.0276C17.1703 11.21 17.823 11.6498 18.2884 12.2746C18.7536 12.8995 19.0048 13.673 19.0003 14.468C18.9986 15.4044 18.6456 16.3021 18.0189 16.9641C17.392 17.6261 16.5419 17.9989 15.6556 18.0002C15.4727 18.0002 15.2915 17.9837 15.1175 17.9524L5.17412 17.9436C5.0363 17.9553 4.89715 17.9555 4.76006 17.9446C3.2071 17.8028 2.00044 16.4133 2.0003 14.7795C2.00033 14.2172 2.14159 13.6648 2.40948 13.1789C2.67736 12.6931 3.06179 12.2904 3.52471 12.0129C3.61156 11.6319 3.75923 11.269 3.96026 10.9397C3.6746 10.4431 3.48263 9.89538 3.3919 9.3264C3.32368 9.4329 3.22395 9.51327 3.10479 9.54906L1.66729 9.97875C1.53399 10.0185 1.39116 10.0017 1.26983 9.93187C1.14849 9.86205 1.05811 9.74519 1.01983 9.60668C0.981606 9.46821 0.998548 9.3196 1.06573 9.19359C1.13285 9.06769 1.24513 8.97465 1.37823 8.9348L2.81475 8.50511C2.88062 8.48541 2.94976 8.47959 3.01787 8.48753C3.08614 8.49556 3.15309 8.51741 3.21319 8.55199C3.25744 8.57749 3.29608 8.61124 3.33135 8.64867V8.64574C3.31824 7.8359 3.50963 7.03649 3.88506 6.33031C4.26045 5.62436 4.8069 5.03665 5.46807 4.62718C6.12955 4.21763 6.88302 4.00112 7.64971 4.00023ZM12.139 8.25414C11.4352 8.25683 10.7508 8.49784 10.1868 8.94261C9.62284 9.38755 9.20861 10.0126 9.00616 10.7248L8.77666 11.55L8.14092 11.0119C7.74724 10.6784 7.25785 10.4962 6.75323 10.4953C6.21972 10.4921 5.70273 10.6916 5.29717 11.0578C4.8916 11.4242 4.62417 11.9331 4.54424 12.4905L4.49834 12.801L4.22686 12.928C3.88797 13.0871 3.59967 13.3473 3.39776 13.676C3.19591 14.0047 3.08875 14.3887 3.08916 14.7805C3.09256 15.2787 3.26818 15.7586 3.5833 16.1291C3.8985 16.4998 4.33154 16.7356 4.8001 16.7922L15.1614 16.801V16.7981L15.9476 16.8274C16.4895 16.7521 16.9872 16.4712 17.348 16.0373C17.7087 15.6034 17.9086 15.0456 17.9095 14.468C17.9137 13.8768 17.7073 13.3052 17.3323 12.8664C16.9573 12.4277 16.4402 12.1535 15.8831 12.0979L15.4095 12.05L15.3909 11.5471C15.358 10.6602 15.0002 9.82153 14.3939 9.20726C13.7874 8.59294 12.9791 8.25143 12.139 8.25414ZM7.64971 5.15062C6.79369 5.15186 5.97293 5.51221 5.36748 6.1516C4.76213 6.7909 4.42091 7.65744 4.41924 8.56175C4.41875 9.0772 4.52949 9.58631 4.74248 10.05C5.3209 9.58657 6.02828 9.33784 6.7542 9.343C7.26113 9.34322 7.76136 9.46671 8.21612 9.70335C8.71782 8.61743 9.60085 7.7813 10.6771 7.3723C10.4474 6.71976 10.0337 6.15706 9.49248 5.76C8.95136 5.3631 8.30843 5.15004 7.64971 5.15062ZM1.47295 4.44457C1.56564 4.43305 1.65976 4.44704 1.74541 4.48558L3.13116 5.07054C3.25255 5.12961 3.34786 5.23482 3.39678 5.36449C3.44559 5.49402 3.44417 5.63792 3.39385 5.76683C3.34342 5.89587 3.24737 6.00031 3.1253 6.05785C3.00339 6.11523 2.86507 6.1218 2.73858 6.0764L1.35284 5.49242C1.26546 5.45856 1.18801 5.40159 1.1292 5.3264C1.07028 5.25097 1.03174 5.15978 1.01787 5.06371C1.00407 4.96772 1.0151 4.86951 1.0501 4.77953C1.08511 4.68954 1.14297 4.61106 1.21709 4.55199C1.29165 4.49338 1.38013 4.45612 1.47295 4.44457ZM13.3343 4.25414C13.4672 4.21464 13.6098 4.2314 13.7308 4.30101C13.8519 4.37076 13.9416 4.48789 13.9798 4.62621C14.0179 4.76434 14.0018 4.91259 13.9349 5.03832C13.8677 5.16417 13.7545 5.25743 13.6214 5.2971L12.1858 5.72679C12.1389 5.7405 12.0901 5.74679 12.0413 5.7473C11.9159 5.74643 11.7949 5.69919 11.7005 5.61351C11.606 5.52762 11.5442 5.40869 11.5267 5.27953C11.5092 5.15046 11.5369 5.01898 11.6048 4.90941C11.6728 4.79989 11.7765 4.71969 11.8968 4.68285L13.3343 4.25414ZM4.42705 1.59886C4.56557 1.60787 4.69557 1.67337 4.78741 1.78148L5.77569 2.94554C5.84166 3.02384 5.88479 3.11999 5.89971 3.22289C5.91459 3.32609 5.90085 3.4324 5.85967 3.52757C5.82406 3.61034 5.76891 3.68257 5.69952 3.73753C5.62998 3.79257 5.54765 3.82835 5.46123 3.84203C5.37491 3.85564 5.28646 3.84666 5.2044 3.81566C5.12235 3.78462 5.04923 3.73237 4.99151 3.66429L4.00225 2.50121C3.91046 2.39311 3.86376 2.25151 3.87237 2.10765C3.88103 1.96382 3.94418 1.82903 4.04815 1.73363C4.15213 1.63832 4.28866 1.58999 4.42705 1.59886ZM9.52764 1.05101C9.6531 0.99009 9.79682 0.983523 9.92705 1.03246C10.0574 1.08151 10.1641 1.18234 10.223 1.31273C10.2818 1.44323 10.2878 1.59327 10.2405 1.72875L9.73272 3.18773C9.65736 3.40266 9.46091 3.54609 9.24053 3.54613C9.15664 3.54623 9.07378 3.52475 8.99932 3.48461C8.92492 3.44446 8.86098 3.38596 8.8128 3.31468C8.76476 3.24354 8.73406 3.16155 8.72295 3.07543C8.71188 2.98904 8.72075 2.90053 8.74932 2.81859L9.25713 1.35863C9.30437 1.22315 9.40203 1.1121 9.52764 1.05101Z" />
</svg>
