<svg width="20" height="20" viewBox="0 0 20 20" xmlns="http://www.w3.org/2000/svg">
<path d="M6.84217 2.13086C6.96063 2.13093 7.0742 2.17577 7.15895 2.2553L8.29216 3.32314H14.2208C14.24 3.23237 14.2686 3.14345 14.3056 3.05745C14.3816 2.88135 14.4927 2.72139 14.6329 2.58658C14.7732 2.45179 14.9397 2.34426 15.123 2.27128C15.3062 2.19833 15.503 2.16117 15.7014 2.16113C16.1022 2.16113 16.4873 2.31424 16.7707 2.58658C17.0539 2.8589 17.2126 3.22824 17.2126 3.61323C17.2126 3.99823 17.054 4.36758 16.7707 4.63987C16.636 4.76937 16.4774 4.87065 16.3061 4.94257V10.8762L17.5084 12.0097C17.5927 12.0896 17.6409 12.1985 17.6432 12.3124C17.6453 12.4262 17.601 12.5364 17.5198 12.6193C16.8028 13.3538 15.9359 13.9385 14.9733 14.3371C14.0109 14.7355 12.9734 14.9394 11.9255 14.9357C11.5696 14.9354 11.216 14.9101 10.8675 14.8634V17.2572H17.6537C17.7132 17.2574 17.7729 17.2688 17.8278 17.2909C17.8826 17.3129 17.9321 17.3455 17.9739 17.3859C18.0159 17.4265 18.0493 17.4751 18.0719 17.528C18.0945 17.5808 18.1062 17.6374 18.1061 17.6945C18.1059 17.7517 18.094 17.8082 18.0711 17.861C18.0481 17.9138 18.0144 17.9619 17.9722 18.0022C17.93 18.0425 17.8802 18.0747 17.8252 18.0964C17.7702 18.1181 17.7113 18.1293 17.6519 18.1292H10.4308C10.4251 18.1294 10.4191 18.1309 10.4133 18.1309V18.1292H2.55783C2.47692 18.1292 2.39722 18.1076 2.32769 18.0678C2.25825 18.028 2.20079 17.9713 2.1623 17.903C2.12279 17.8351 2.10383 17.7579 2.10629 17.6802C2.10882 17.6023 2.13328 17.5262 2.17717 17.4607L5.77546 11.987C4.77347 10.7107 4.22054 9.14937 4.21871 7.5323C4.21873 5.53262 5.03841 3.65697 6.52452 2.2553C6.60934 2.17571 6.72362 2.13086 6.84217 2.13086ZM3.38214 17.2572H9.95917V14.6877C8.65379 14.3557 7.44944 13.6987 6.47814 12.7656C6.44879 12.7374 6.42121 12.7076 6.39239 12.679L3.38214 17.2572ZM6.85442 3.18357C5.73773 4.37753 5.12243 5.9279 5.12879 7.53314C5.13037 9.2651 5.84763 10.9263 7.1222 12.1509C8.3967 13.3755 10.1248 14.0639 11.9272 14.0655C13.6438 14.0727 15.2984 13.4485 16.5511 12.3208L6.85355 3.18525L6.85442 3.18357ZM12.5083 7.29687L15.3986 10.0211V5.03506C15.3046 5.01657 15.212 4.99062 15.123 4.95518C15.0816 4.93873 15.0417 4.91951 15.0022 4.89969L12.5083 7.29687ZM11.8607 6.68643L14.3625 4.28505C14.3463 4.25516 14.332 4.22438 14.3179 4.1934H9.21536L11.8607 6.68643ZM15.7014 3.03306C15.5415 3.03344 15.3884 3.09519 15.2752 3.20375C15.162 3.31237 15.0973 3.45948 15.0967 3.61323C15.0968 3.93336 15.3682 4.19409 15.7014 4.19424C15.8617 4.19424 16.0159 4.13249 16.1293 4.02355C16.2425 3.91467 16.306 3.76714 16.3061 3.61323C16.3061 3.45917 16.2427 3.311 16.1293 3.20207C16.0159 3.09317 15.8617 3.03222 15.7014 3.03222V3.03306Z" />
<path d="M17.039 3.54842C17.0071 3.23921 16.8653 2.94814 16.6349 2.7265C16.4042 2.50479 16.1009 2.36797 15.779 2.33717L15.6397 2.33052C15.455 2.33055 15.2717 2.36583 15.1014 2.43367C14.9311 2.50153 14.7759 2.601 14.6453 2.7265C14.5149 2.85189 14.4122 3.0011 14.3415 3.16492C14.307 3.24502 14.2798 3.32777 14.2619 3.41199L14.2481 3.48021H8.27585L8.24989 3.45608L7.12918 2.39956C7.07863 2.35223 7.01546 2.32016 6.94744 2.30722L6.87821 2.30057C6.78432 2.30057 6.69371 2.3365 6.62637 2.39956C5.17362 3.77036 4.37199 5.60428 4.37197 7.55986L4.3789 7.85519C4.44325 9.33054 4.97595 10.7456 5.89423 11.9157L5.93058 11.9631L5.89856 12.013L2.33998 17.4287C2.30538 17.4804 2.28489 17.5409 2.28287 17.6026C2.2809 17.6645 2.29606 17.7257 2.327 17.779L2.32787 17.7798C2.35806 17.8334 2.4033 17.8787 2.45854 17.9104C2.51398 17.9421 2.57753 17.9595 2.64115 17.9595H17.5687C17.6157 17.9596 17.6626 17.9501 17.7063 17.9329C17.7496 17.9157 17.7894 17.8902 17.8231 17.858C17.8564 17.8261 17.8829 17.7881 17.901 17.7465C17.9191 17.7046 17.9294 17.6595 17.9295 17.6142C17.9297 17.5691 17.9198 17.5241 17.9018 17.482C17.8838 17.4398 17.8571 17.4009 17.824 17.3688C17.7904 17.3365 17.7516 17.3103 17.7089 17.2931C17.687 17.2844 17.6638 17.2785 17.6405 17.274L17.5704 17.2665H10.7708V14.7151L10.8712 14.7292C11.2121 14.7749 11.5578 14.7996 11.9054 14.7999C12.9295 14.8035 13.9436 14.6038 14.8841 14.2143C15.8248 13.8246 16.6723 13.2528 17.3731 12.5346C17.4375 12.4688 17.4734 12.3812 17.4717 12.2909C17.4704 12.223 17.4484 12.1573 17.4094 12.1021L17.3644 12.0505L16.1753 10.9291L16.1494 10.9041V4.94186L16.2022 4.9194C16.362 4.85227 16.5099 4.75839 16.6349 4.63822C16.8983 4.38485 17.0459 4.04077 17.0459 3.68236L17.039 3.54842ZM6.49743 12.5929C6.53079 12.626 6.55069 12.6491 6.58051 12.6777C7.52983 13.5902 8.70731 14.2323 9.98331 14.557L10.0491 14.5736V17.2665H3.2954L6.3581 12.6062L6.41867 12.5147L6.49743 12.5929ZM3.61733 17.0968H9.87254V14.7034C8.59204 14.366 7.41131 13.7158 6.45589 12.7975C6.45321 12.795 6.45087 12.7919 6.4481 12.7892L3.61733 17.0968ZM16.5423 12.2368L16.608 12.2992L16.5405 12.3599C15.2853 13.4905 13.6272 14.1157 11.9071 14.1086C10.1012 14.107 8.36988 13.4169 7.09283 12.1894C5.81574 10.9618 5.09704 9.29686 5.09546 7.56069C5.08917 5.95151 5.70565 4.3976 6.82455 3.20069L6.89898 3.24894L6.95177 3.19819L16.5423 12.2368ZM14.9889 4.87947C15.0272 4.8987 15.0643 4.91626 15.1014 4.93105C15.1835 4.96375 15.2702 4.98855 15.3584 5.00592L15.4285 5.01923V10.2253L12.4194 7.38766L12.3554 7.32776L12.4194 7.26703L14.8859 4.89527L14.9317 4.85035L14.9889 4.87947ZM12.6072 7.32526L15.2519 9.81931V5.15483C15.1784 5.13728 15.1049 5.11738 15.0339 5.08911C15.0103 5.07971 14.9878 5.06793 14.9655 5.0575L12.6072 7.32526ZM14.3294 4.17152L14.3528 4.22226C14.3666 4.25272 14.3798 4.28121 14.3943 4.30795L14.4246 4.36286L14.3779 4.40695L11.9037 6.78286L11.8422 6.84276L11.779 6.7837L9.1629 4.3171L9.00799 4.17152H14.3294ZM11.8405 6.60317L14.197 4.34123H9.44156L11.8405 6.60317ZM16.139 3.58586C16.1194 3.49175 16.072 3.40412 16.0005 3.33546C15.9072 3.24576 15.7804 3.19535 15.6483 3.1932H15.6397C15.5053 3.19357 15.376 3.24549 15.2805 3.33712C15.1849 3.42881 15.1305 3.55315 15.1299 3.68236L15.1403 3.78052C15.1878 4.00344 15.394 4.17222 15.6397 4.17235C15.7746 4.17235 15.9049 4.12034 16.0005 4.02843C16.0958 3.93669 16.1493 3.81206 16.1494 3.68236L16.139 3.58586ZM5.272 7.56069C5.27357 9.25168 5.97356 10.8739 7.21745 12.0696C8.46127 13.2652 10.1481 13.9373 11.9071 13.9389C13.5511 13.9458 15.1355 13.3568 16.3493 12.2942L6.89379 3.38287C5.84393 4.53897 5.26592 6.02405 5.272 7.56069ZM16.3233 3.74725C16.3078 3.89826 16.2377 4.0399 16.1251 4.14823C16.0125 4.25651 15.8646 4.32368 15.7072 4.33873L15.6397 4.34206C15.2849 4.3419 14.9922 4.08201 14.9568 3.74974L14.9534 3.68236C14.9541 3.50748 15.0276 3.34049 15.1559 3.21733C15.2633 3.11429 15.4022 3.04835 15.5514 3.02932V3.02266H15.6397C15.8215 3.02266 15.9963 3.09184 16.1251 3.21566C16.254 3.33954 16.3259 3.50751 16.3259 3.68236L16.3233 3.74725ZM17.2225 3.68236C17.2225 4.08578 17.0563 4.47257 16.7595 4.75801C16.6322 4.88034 16.4844 4.97682 16.3259 5.05001V10.8317L17.489 11.929L17.5557 12.0064C17.614 12.089 17.6463 12.1866 17.6483 12.2876C17.6508 12.4223 17.5988 12.553 17.5029 12.6511C16.7855 13.3863 15.918 13.9717 14.9551 14.3707C13.9922 14.7695 12.9539 14.9733 11.9054 14.9696C11.5833 14.9693 11.2633 14.9474 10.9474 14.9089V17.0968H17.5704C17.6406 17.097 17.7113 17.1099 17.7764 17.1359C17.8417 17.1622 17.9011 17.2016 17.9503 17.249C18.0001 17.2972 18.0396 17.3547 18.0663 17.4171C18.0929 17.4794 18.1062 17.5465 18.1061 17.6142C18.1059 17.6819 18.0924 17.7491 18.0654 17.8114C18.0382 17.874 17.9977 17.9317 17.9477 17.9795C17.8981 18.0268 17.8391 18.0651 17.7738 18.0909C17.7413 18.1037 17.7077 18.1135 17.6734 18.12L17.5687 18.1292H10.4325L10.4307 18.13C10.4291 18.1302 10.4261 18.1306 10.4229 18.1309H10.3217V18.1292H2.64115C2.54482 18.1292 2.45058 18.1037 2.36854 18.0568C2.28666 18.0099 2.21798 17.9427 2.17209 17.8613L2.17296 17.8605C2.12627 17.7797 2.10344 17.689 2.10632 17.5976C2.10931 17.5053 2.13818 17.4151 2.19027 17.3372L5.71509 11.9698C4.7985 10.7818 4.26654 9.35236 4.20149 7.86267L4.19543 7.55986C4.19545 5.55857 5.01518 3.6809 6.50175 2.27811C6.60214 2.18387 6.73776 2.13086 6.87821 2.13086C7.01867 2.13094 7.15358 2.18402 7.2538 2.27811L8.34855 3.3105H14.107C14.1258 3.23903 14.1477 3.16829 14.1771 3.10003C14.2566 2.91549 14.3737 2.748 14.5207 2.60671C14.6675 2.46555 14.8417 2.35216 15.0339 2.27561C15.2259 2.19918 15.4321 2.16085 15.6397 2.16081L15.7963 2.1683C16.1588 2.20294 16.4997 2.35698 16.7595 2.60671C17.0562 2.89215 17.2225 3.27894 17.2225 3.68236Z" />
</svg>
