<svg width="20" height="20" viewBox="0 0 20 20" xmlns="http://www.w3.org/2000/svg">
<path d="M16.498 16.4846C13.5542 19.4284 8.83145 19.5025 5.79292 16.7123C5.7106 16.6367 5.7093 16.5077 5.78833 16.4287L6.06235 16.1546C6.13943 16.0776 6.26419 16.077 6.34476 16.1504C9.07411 18.6372 13.3026 18.5668 15.9414 15.9279C18.5802 13.2891 18.6506 9.06066 16.1638 6.33131C16.0904 6.25074 16.091 6.12598 16.1681 6.0489L16.4421 5.77488C16.5212 5.69585 16.6502 5.69715 16.7258 5.77947C19.5159 8.818 19.4419 13.5408 16.498 16.4846ZM9.49303 4.83895C9.4149 4.76083 9.41492 4.63416 9.49308 4.55606L11.9953 2.0556C12.0734 1.97754 12.2 1.97756 12.2781 2.05565L14.7785 4.55611C14.8566 4.63419 14.8567 4.76079 14.7786 4.8389L12.2781 7.34112C12.2 7.41927 12.0734 7.41929 11.9952 7.34117L9.49303 4.83895ZM12.2781 3.16898C12.2 3.09087 12.0734 3.09087 11.9953 3.16898L10.6082 4.55606C10.5301 4.63416 10.5301 4.7608 10.6082 4.8389L11.9953 6.22598C12.0734 6.30409 12.2 6.30409 12.2781 6.22598L13.6652 4.8389C13.7433 4.7608 13.7433 4.63416 13.6652 4.55606L12.2781 3.16898ZM14.5854 7.63161C14.6649 7.5521 14.7948 7.55367 14.869 7.63818C16.6342 9.6491 16.5605 12.7092 14.6426 14.6272C12.7246 16.5451 9.66264 16.6188 7.65345 14.8536C7.569 14.7794 7.56746 14.6495 7.64694 14.5701L7.92138 14.2956C7.99782 14.2192 8.12095 14.2178 8.20286 14.2883C9.90404 15.7534 12.4721 15.6844 14.0859 14.0705C15.6998 12.4567 15.7706 9.88864 14.3039 8.18747C14.2333 8.10556 14.2346 7.98236 14.3111 7.90589L14.5854 7.63161ZM10.3254 5.95314C10.4036 5.87551 10.5298 5.87573 10.6077 5.95364L10.882 6.22793C10.9601 6.30604 10.9601 6.43267 10.882 6.51078L10.6082 6.78457C10.5301 6.86268 10.5301 6.98931 10.6082 7.06742L12.7375 9.19668C12.8156 9.27479 12.8156 9.40142 12.7375 9.47953L11.5359 10.6811C11.4578 10.7592 11.4578 10.8858 11.5359 10.9639L11.8097 11.2377C11.8878 11.3158 11.8878 11.4424 11.8097 11.5205L11.5359 11.7943C11.4578 11.8724 11.3312 11.8724 11.2531 11.7943L10.9793 11.5205C10.9012 11.4424 10.7746 11.4424 10.6965 11.5205L9.49488 12.7221C9.41679 12.8002 9.2902 12.8002 9.21209 12.7222L3.92472 7.43851C3.84657 7.36041 3.84654 7.23374 3.92467 7.15562L7.16912 3.91117C7.24722 3.83306 7.37386 3.83306 7.45196 3.91117L9.76727 6.22648C9.84518 6.30439 9.97143 6.30461 10.0496 6.22697L10.3254 5.95314ZM5.03985 7.15567C4.96175 7.23377 4.96175 7.36041 5.03985 7.43851L9.21209 11.6107C9.29019 11.6889 9.41682 11.6889 9.49493 11.6107L11.6242 9.48148C11.7023 9.40337 11.7023 9.27674 11.6242 9.19864L7.45196 5.0264C7.37386 4.9483 7.24722 4.9483 7.16912 5.0264L5.03985 7.15567ZM6.10351 10.7307L5.96563 10.5928C5.88753 10.5147 5.88753 10.3881 5.96563 10.31L6.23943 10.0362C6.31754 9.95806 6.44417 9.95806 6.52227 10.0362L6.79607 10.31C6.87418 10.3881 6.87418 10.5147 6.79607 10.5928L6.52227 10.8666C6.44417 10.9447 6.44417 11.0713 6.52227 11.1494L7.35281 11.98C7.43088 12.0581 7.43092 12.1846 7.35291 12.2627L4.85426 14.7649C4.77619 14.8431 4.64951 14.8431 4.57136 14.765L2.06925 12.2647C1.9911 12.1866 1.99107 12.0599 2.0692 11.9818L4.56961 9.48138C4.64767 9.40331 4.77423 9.40327 4.85235 9.48128L6.10351 10.7307ZM4.57146 13.6518C4.64957 13.7299 4.7762 13.7299 4.85431 13.6518L6.24138 12.2647C6.31949 12.1866 6.31949 12.0599 6.24138 11.9818L4.85431 10.5948C4.7762 10.5167 4.64957 10.5167 4.57146 10.5948L3.18438 11.9818C3.10628 12.0599 3.10628 12.1866 3.18438 12.2647L4.57146 13.6518Z" />
<path d="M16.3711 5.7038C16.4894 5.58549 16.6848 5.58638 16.7998 5.71161C19.6256 8.78937 19.5501 13.5726 16.5683 16.5544C13.5865 19.5362 8.80331 19.6117 5.72554 16.7858C5.60032 16.6708 5.59943 16.4754 5.71773 16.3571L5.99117 16.0837C6.10747 15.9674 6.29355 15.9679 6.41207 16.0759C9.1022 18.527 13.2703 18.4579 15.8711 15.8571C18.4718 13.2564 18.5409 9.08827 16.0898 6.39813C15.9819 6.27961 15.9813 6.09353 16.0976 5.97723L16.3711 5.7038ZM16.7255 5.77899C16.65 5.69683 16.5214 5.69536 16.4423 5.77411L16.1679 6.04852L16.1425 6.07977C16.0921 6.15635 16.0999 6.26037 16.164 6.33075C18.6508 9.0601 18.5801 13.2886 15.9414 15.9274L15.6894 16.1677C13.1251 18.491 9.24817 18.5573 6.60445 16.3757L6.34469 16.1501C6.26416 16.0767 6.13955 16.0771 6.06246 16.154L5.78804 16.4284L5.76265 16.4597C5.71088 16.5383 5.72088 16.6454 5.79293 16.7116C8.73647 19.4145 13.2605 19.4296 16.2168 16.7516L16.498 16.4841C19.3498 13.6322 19.508 9.11131 16.9785 6.06903L16.7255 5.77899ZM14.5146 7.56024C14.6332 7.44169 14.8304 7.44218 14.9443 7.57196C16.7437 9.62212 16.6683 12.7415 14.7128 14.697C12.7574 16.6524 9.63632 16.7278 7.58785 14.9284C7.45814 14.8144 7.45757 14.6173 7.57613 14.4987L7.85054 14.2243C7.96601 14.1088 8.14913 14.1088 8.26851 14.2116C9.93048 15.6429 12.4392 15.5761 14.0156 13.9997C15.5919 12.4234 15.661 9.91452 14.2285 8.25262C14.1256 8.13328 14.1248 7.95018 14.2402 7.83466L14.5146 7.56024ZM14.8691 7.63739C14.7949 7.55296 14.6644 7.55204 14.5849 7.63153L14.3115 7.90497L14.2861 7.93622C14.2356 8.01215 14.2419 8.11553 14.3037 8.18719C15.7704 9.88837 15.6997 12.4562 14.0859 14.07L13.9316 14.2165C12.3644 15.6389 10.0092 15.704 8.36519 14.4206L8.20308 14.2878C8.12117 14.2172 7.9973 14.2192 7.92086 14.2956L7.64644 14.57L7.62105 14.6013C7.56908 14.6804 7.57931 14.7882 7.65328 14.8532C9.59971 16.5632 12.5347 16.5478 14.4599 14.8015L14.6425 14.6266C16.5006 12.7686 16.628 9.83833 15.0293 7.8288L14.8691 7.63739ZM11.9248 1.98407C12.0419 1.8673 12.2315 1.86728 12.3486 1.98407L14.8496 4.48505C14.9664 4.60212 14.9663 4.79177 14.8496 4.90887L12.3486 7.41083C12.2316 7.52794 12.042 7.52863 11.9248 7.4118L11.0097 6.49676C10.9955 6.52678 10.9779 6.55588 10.9531 6.58075L10.6787 6.85516C10.64 6.89414 10.64 6.95681 10.6787 6.99579L12.8086 9.12567C12.9253 9.24275 12.9253 9.43242 12.8086 9.5495L11.6064 10.7516C11.5678 10.7906 11.5678 10.8533 11.6064 10.8923L11.8808 11.1667C11.9976 11.2838 11.9976 11.4734 11.8808 11.5905L11.6064 11.8649C11.4893 11.9817 11.2997 11.9817 11.1826 11.8649L10.9082 11.5905C10.8692 11.5519 10.8065 11.5519 10.7675 11.5905L9.56539 12.7927C9.44832 12.9095 9.25866 12.9094 9.14156 12.7927L6.92476 10.5768C6.91042 10.6076 6.89249 10.6374 6.86715 10.6628L6.59273 10.9372C6.55409 10.9762 6.55409 11.0388 6.59273 11.0778L7.42379 11.9089C7.54062 12.0259 7.54058 12.2156 7.42379 12.3327L4.92476 14.8347C4.80777 14.9518 4.61819 14.9524 4.50094 14.8356L1.99898 12.3347C1.88187 12.2176 1.88118 12.028 1.99801 11.9108L4.49898 9.40985C4.61605 9.29301 4.80569 9.29306 4.92281 9.40985L5.8359 10.3229C5.85019 10.2926 5.86949 10.264 5.89449 10.239L6.1689 9.96454C6.19398 9.93953 6.22259 9.92024 6.25289 9.90594L3.85445 7.50848C3.73734 7.39146 3.73665 7.20187 3.85347 7.08466L7.09859 3.83954C7.21567 3.72279 7.40534 3.72279 7.52242 3.83954L9.83785 6.15497C9.87679 6.1939 9.94036 6.19471 9.97945 6.15594L10.2548 5.88153C10.2794 5.85714 10.3073 5.83805 10.3369 5.82391L9.42183 4.90887C9.305 4.79166 9.3057 4.60207 9.42281 4.48505L11.9248 1.98407ZM4.8525 9.48114C4.77438 9.40313 4.64736 9.40307 4.56929 9.48114L2.06929 11.9811L2.0439 12.0124C1.99238 12.0901 2.00081 12.1959 2.06929 12.2643L4.57125 14.7643C4.63974 14.8328 4.74555 14.8413 4.8232 14.7897L4.85445 14.7643L7.3525 12.2624C7.43051 12.1843 7.43056 12.0573 7.3525 11.9792L6.52242 11.1491C6.45396 11.0806 6.44548 10.9748 6.49703 10.8972L6.52242 10.8659L6.79586 10.5925C6.87396 10.5144 6.87396 10.3874 6.79586 10.3093L6.52242 10.0358C6.44431 9.95772 6.31732 9.95772 6.23922 10.0358L5.96578 10.3093L5.94039 10.3405C5.88884 10.4182 5.89732 10.524 5.96578 10.5925L6.10347 10.7302L4.8525 9.48114ZM4.57125 10.5944C4.64935 10.5163 4.77635 10.5163 4.85445 10.5944L6.24117 11.9811C6.31927 12.0592 6.31927 12.1862 6.24117 12.2643L4.85445 13.6511L4.8232 13.6765C4.74553 13.728 4.63971 13.7195 4.57125 13.6511L3.18453 12.2643C3.11607 12.1959 3.10759 12.0901 3.15914 12.0124L3.18453 11.9811L4.57125 10.5944ZM4.78316 10.6647C4.74419 10.6261 4.68151 10.6261 4.64254 10.6647L3.25484 12.0524C3.2162 12.0914 3.2162 12.1541 3.25484 12.1931L4.64254 13.5807C4.68151 13.6194 4.74419 13.6194 4.78316 13.5807L6.17086 12.1931C6.2095 12.1541 6.2095 12.0914 6.17086 12.0524L4.78316 10.6647ZM12.2783 2.05536C12.2002 1.97727 12.0732 1.9773 11.9951 2.05536L9.49312 4.55536L9.46773 4.58661C9.41617 4.66427 9.42466 4.7701 9.49312 4.83856L10.6074 5.95282C10.5294 5.87521 10.4032 5.87528 10.3252 5.95282L10.0498 6.22626L10.0185 6.25165C9.95203 6.29545 9.86524 6.29543 9.79879 6.25165L9.76754 6.22626L7.45211 3.91083C7.374 3.83272 7.24701 3.83272 7.1689 3.91083L3.92476 7.15497L3.89937 7.18622C3.84785 7.2639 3.85628 7.36973 3.92476 7.43817L9.21187 12.7214C9.28035 12.7898 9.38617 12.7983 9.46383 12.7468L9.49508 12.7214L10.6962 11.5202C10.7744 11.4421 10.9013 11.4421 10.9795 11.5202L11.2529 11.7936C11.3213 11.8621 11.4272 11.8706 11.5048 11.819L11.5361 11.7936L11.8095 11.5202C11.8876 11.4421 11.8876 11.3151 11.8095 11.237L11.5361 10.9636C11.4676 10.8951 11.4591 10.7893 11.5107 10.7116L11.5361 10.6804L12.7373 9.47919C12.8154 9.40108 12.8154 9.27409 12.7373 9.19598L10.6084 7.06708C10.5399 6.99862 10.5314 6.89279 10.583 6.81512L10.6084 6.78387L10.8818 6.51044C10.9599 6.43233 10.9599 6.30534 10.8818 6.22723L11.9951 7.34051C12.0635 7.40898 12.1694 7.41747 12.247 7.36591L12.2783 7.34051L14.7783 4.83856C14.8563 4.76045 14.8564 4.63344 14.7783 4.55536L12.2783 2.05536ZM7.1689 5.02606C7.24701 4.94796 7.374 4.94796 7.45211 5.02606L11.624 9.19794C11.7021 9.27604 11.7021 9.40303 11.624 9.48114L9.49508 11.61L9.46383 11.6354C9.38616 11.687 9.28033 11.6785 9.21187 11.61L5.04 7.43817C4.97154 7.36971 4.96305 7.26389 5.01461 7.18622L5.04 7.15497L7.1689 5.02606ZM7.38082 5.09637C7.34185 5.05773 7.27917 5.05773 7.24019 5.09637L5.11031 7.22626C5.07167 7.26523 5.07167 7.32791 5.11031 7.36688L9.28316 11.5397C9.32214 11.5784 9.38481 11.5784 9.42379 11.5397L11.5537 9.40985C11.5923 9.37088 11.5923 9.3082 11.5537 9.26923L7.38082 5.09637ZM11.9951 3.16864C12.0732 3.09053 12.2002 3.09053 12.2783 3.16864L13.665 4.55536C13.7431 4.63346 13.7431 4.76046 13.665 4.83856L12.2783 6.22528L12.247 6.25067C12.1694 6.30222 12.0635 6.29374 11.9951 6.22528L10.6084 4.83856C10.5399 4.7701 10.5314 4.66428 10.583 4.58661L10.6084 4.55536L11.9951 3.16864ZM12.207 3.23895C12.168 3.20031 12.1053 3.20031 12.0664 3.23895L10.6787 4.62665C10.64 4.66562 10.64 4.7283 10.6787 4.76727L12.0664 6.15497C12.1053 6.19361 12.168 6.19361 12.207 6.15497L13.5947 4.76727C13.6333 4.7283 13.6333 4.66562 13.5947 4.62665L12.207 3.23895Z" />
</svg>
