<svg width="10" height="10" viewBox="0 0 10 10" xmlns="http://www.w3.org/2000/svg">
<path d="M8.92834 1.07121C9.00646 1.14935 9.05034 1.25531 9.05034 1.3658C9.05034 1.47628 9.00646 1.58224 8.92834 1.66038L5.58918 4.99871L8.92834 8.33871C9.00424 8.4173 9.04624 8.52255 9.04529 8.6318C9.04434 8.74105 9.00052 8.84555 8.92327 8.92281C8.84601 9.00006 8.74151 9.04388 8.63226 9.04483C8.52301 9.04578 8.41776 9.00378 8.33918 8.92788L5.00001 5.58788L1.66084 8.92788C1.58226 9.00378 1.47701 9.04578 1.36776 9.04483C1.25851 9.04388 1.154 9.00006 1.07675 8.92281C0.999497 8.84555 0.955677 8.74105 0.954728 8.6318C0.953778 8.52255 0.995776 8.4173 1.07168 8.33871L4.41084 4.99871L1.07168 1.66038C0.995776 1.5818 0.953778 1.47654 0.954728 1.3673C0.955677 1.25805 0.999497 1.15354 1.07675 1.07629C1.154 0.999035 1.25851 0.955214 1.36776 0.954265C1.47701 0.953316 1.58226 0.995313 1.66084 1.07121L5.00001 4.40955L8.33918 1.07121C8.41731 0.9931 8.52327 0.949219 8.63376 0.949219C8.74424 0.949219 8.85021 0.9931 8.92834 1.07121Z" />
</svg>
